<?xml version="1.0" encoding="UTF-8"?>
<svg id="_레이어_1" data-name=" 레이어 1" xmlns="http://www.w3.org/2000/svg" version="1.1" xmlns:xlink="http://www.w3.org/1999/xlink" viewBox="0 0 2048 2048">
  <defs>
    <style>
      .cls-1 {
        fill: #263238;
      }

      .cls-1, .cls-2, .cls-3, .cls-4, .cls-5, .cls-6 {
        stroke-width: 0px;
      }

      .cls-1, .cls-3, .cls-5 {
        isolation: isolate;
        opacity: .2;
      }

      .cls-2 {
        fill: #eee;
      }

      .cls-3, .cls-6 {
        fill: #fff;
      }

      .cls-4 {
        fill: #1d9bf0;
      }

      .cls-7 {
        opacity: .7;
      }

      .cls-5 {
        fill: url(#_무제_그라디언트);
      }
    </style>
    <linearGradient id="_무제_그라디언트" data-name="무제 그라디언트" x1="1098.5" y1="-1717.4" x2="1630.3" y2="-1185.7" gradientTransform="translate(0 2658)" gradientUnits="userSpaceOnUse">
      <stop offset="0" stop-color="#263238"/>
      <stop offset="1" stop-color="#000" stop-opacity="0"/>
    </linearGradient>
  </defs>
  <path id="_판" data-name=" 판" class="cls-4" d="M1908.7,884.3C1908.7,396,1512,0,1023.6,0S139.3,396,139.3,884.3s421.7,837.8,884.3,837.8v325.8c537.4-272.5,885.1-711.1,885.1-1163.7Z"/>
  <path id="_판_빛" data-name=" 판 빛" class="cls-3" d="M1023.6,11.6c488.4,0,884.3,396,884.3,884.3h.5c0-3.8.3-7.8.3-11.6h-.7c0-488.4-396-884.3-884.3-884.3S139.3,396,139.3,884.3s.1,3.6.1,5.5C142.8,404.2,537.3,11.6,1023.6,11.6Z"/>
  <path id="_판_그림자" data-name=" 판 그림자" class="cls-1" d="M1023.6,1722.2v-11.6c-460.9,0-880.9-372.1-884.2-832.3,0,2.1-.1,4.1-.1,6.1,0,462.7,421.7,837.8,884.3,837.8ZM1908,884.3c-5.9,448.4-351.6,881.8-884.3,1152v11.6c537.4-272.5,884.3-711,884.3-1163.6h0Z"/>
  <path id="_판_위_그림자" data-name=" 판 위 그림자" class="cls-5" d="M1023.6,1739.1l189.4,189.4c426.5-271.7,693.5-655.8,695.6-1051.1l-363.8-363.8-741.8,741.8h-263l454.6,454.6c9.7.3,19.4.5,29.1.5v28.6h0Z"/>
  <g id="_새_그림자" data-name=" 새 그림자">
    <path class="cls-1" d="M1545.4,537.5v-11.6c-13.2,40.8-38.3,76.5-71.8,102.6h0c5.8-1,11.5-2.1,17.2-3.3,24.9-24.1,43.8-54.2,54.6-87.6h0Z"/>
    <path class="cls-1" d="M655.8,1020.3v11.6c24.8,77.1,90.9,132.5,169.4,144.8,4.8-3.2,9.6-6.5,14.3-9.9-84.7-7.4-157.4-64.8-183.7-146.6h0Z"/>
    <path class="cls-1" d="M645,817.3c5,1,10.1,1.7,15.3,2.3-48.4-39.9-75.4-98.2-77-158.1-1.6,57.3,20.1,114,61.7,155.8h0Z"/>
    <path class="cls-1" d="M703.3,1012.2c7.9-.3,15.9-1,23.8-2.2-86-28.3-145.7-109-145.7-201.4v11.6c0,83.7,48.9,157.7,121.9,192h0Z"/>
    <path class="cls-1" d="M1468.7,719.4c0,3.8.1,7.7.1,11.6,41.2-30,76.9-67,105.2-109.4v-11.6c-28.4,42.5-64,79.6-105.3,109.5h0Z"/>
    <path class="cls-1" d="M1468.3,771.8c-12,274.3-224.1,579.1-603.1,579.1v-.2c-115.3.2-228.1-32.8-325.2-95.1v11.6c97.1,62.2,209.9,95.3,325.2,95.1v.2c384.3,0,597.1-313.5,603.5-590.7h-.4Z"/>
  </g>
  <path id="_새" data-name=" 새" class="cls-2" d="M1574.1,598.3c-32.1,14.2-65.9,24.3-100.4,30.2h0c33.5-26.1,58.6-61.8,71.8-102.6h0v-11.6c-41.7,24.7-87.2,42.1-134.7,51.5-80.3-85.4-214.7-89.5-300.1-9.2-44.7,41.9-68.4,100.6-66.8,160.5h0c-.4,14,.6,28,3,42-169.7-9.2-327.7-89.6-434.9-221.5-20.5,35.2-29.7,74.1-28.6,112.2-1.8,64,25.4,127.2,77,169.8h0c-27.7-3.1-54.5-11.7-79-25.3v11.6h0v2.7c0,92.5,59.6,173.1,145.7,201.4-23.6,3.6-47.8,3-71.3-1.5v11.6h0c26.3,81.8,99.1,139.2,183.7,146.6-72.4,52.1-159.6,80.2-249,80.1-16.9,0-33.7-1-50.5-3v11.6c97.1,62.2,209.9,95.3,325.2,95.1v.2c390.2,0,603.6-323.3,603.6-603.6s0-8.3,0-8.3c0-1.1,0-14.1-.1-19.5,41.3-30,77-67,105.3-109.5h0v-11.6h0Z"/>
  <g id="_새_빛" data-name=" 새 빛" class="cls-7">
    <path class="cls-6" d="M751.6,1016.6c-8.3-1.7-16.5-3.9-24.5-6.5-23.6,3.6-47.8,3-71.3-1.5v11.6c31.8,6.1,64.6,4.8,95.8-3.7Z"/>
    <path class="cls-6" d="M1110.6,568.1c85.4-80.3,219.9-76.2,300.1,9.2,45.5-9,89.1-25.3,129.3-48.3,0,0,0-.1,0-.3v.2c1.7-1,3.5-2.1,5.3-3.1v-11.6c-41.7,24.7-87.2,42.1-134.7,51.5-80.3-85.4-214.7-89.5-300.1-9.2-44.7,41.9-68.4,100.6-66.8,160.5,1.5-55.8,25-109.7,66.8-148.9h0Z"/>
    <path class="cls-6" d="M854,1167.6c-4.8,0-9.7-.4-14.5-.8-72.4,52.1-159.6,80.2-249,80.1-16.9,0-33.7-1-50.5-3v11.6c16.7,2,33.6,3,50.5,3,95.5,0,188.3-32,263.5-91Z"/>
    <path class="cls-6" d="M612,549.2c107.7,132.5,266.6,213.1,437.2,221.6-.9-3.9-1.7-7.8-2.4-11.8-169.7-9.2-327.7-89.6-434.9-221.5-20.5,35.2-29.7,74.1-28.6,112.2,1-34.3,10.3-68.9,28.6-100.6h0Z"/>
    <path class="cls-6" d="M1473.6,628.5c-6.9,5.3-14,10.3-21.5,14.7,37.9-4.5,74.9-14,110.2-28.4,0,0,0,0,.1-.1h0c3.8-1.5,7.7-3,11.6-4.7h0v-11.6c-32.1,14.2-65.8,24.3-100.4,30.2h0Z"/>
    <path class="cls-6" d="M677.6,832.5c-6-4-11.8-8.3-17.3-12.9-27.7-3.1-54.5-11.7-79-25.3v11.6h0c29.5,16.4,62.5,25.5,96.3,26.6Z"/>
  </g>
</svg>